HIERARCHY
ROOT RootJoint
{
    OFFSET   0.000000   0.000000   0.000000
    CHANNELS 6 Xposition Yposition Zposition Xrotation Yrotation Zrotation
    JOINT pelvis_lowerback
    {
        OFFSET   0.000000   0.093605   0.000000
        CHANNELS 3 Xrotation Yrotation Zrotation
        JOINT lowerback_torso
        {
            OFFSET   0.000000   0.100000   0.000000
            CHANNELS 3 Xrotation Yrotation Zrotation
            JOINT torso_head
            {
                OFFSET   0.000000   0.282350   0.000000
                CHANNELS 3 Xrotation Yrotation Zrotation
                End Site
                {
                    OFFSET   0.000000   0.192650   0.000000
                }
            }
            JOINT rTorso_Clavicle
            {
                OFFSET  -0.001000   0.157500   0.000000
                CHANNELS 3 Xrotation Yrotation Zrotation
                JOINT rShoulder
                {
                    OFFSET  -0.117647   0.000000   0.000000
                    CHANNELS 3 Xrotation Yrotation Zrotation
                    JOINT rElbow
                    {
                        OFFSET  -0.245000   0.000000   0.000000
                        CHANNELS 3 Xrotation Yrotation Zrotation
                        JOINT rWrist
                        {
                            OFFSET  -0.240000   0.000000   0.000000
                            CHANNELS 3 Xrotation Yrotation Zrotation
                            End Site
                            {
                                OFFSET  -0.116353  -0.002500   0.000000
                            }
                        }
                    }
                }
            }
            JOINT lTorso_Clavicle
            {
                OFFSET   0.001000   0.157500   0.000000
                CHANNELS 3 Xrotation Yrotation Zrotation
                JOINT lShoulder
                {
                    OFFSET   0.117647   0.000000   0.000000
                    CHANNELS 3 Xrotation Yrotation Zrotation
                    JOINT lElbow
                    {
                        OFFSET   0.245000   0.000000   0.000000
                        CHANNELS 3 Xrotation Yrotation Zrotation
                        JOINT lWrist
                        {
                            OFFSET   0.240000   0.000000   0.000000
                            CHANNELS 3 Xrotation Yrotation Zrotation
                            End Site
                            {
                                OFFSET   0.116353  -0.002500   0.000000
                            }
                        }
                    }
                }
            }
        }
    }
    JOINT rHip
    {
        OFFSET  -0.100000  -0.051395   0.000000
        CHANNELS 3 Xrotation Yrotation Zrotation
        JOINT rKnee
        {
            OFFSET   0.000000  -0.410000   0.000000
            CHANNELS 3 Xrotation Yrotation Zrotation
            JOINT rAnkle
            {
                OFFSET   0.000000  -0.390000   0.000000
                CHANNELS 3 Xrotation Yrotation Zrotation
                JOINT rToeJoint
                {
                    OFFSET   0.000000  -0.050000   0.130000
                    CHANNELS 3 Xrotation Yrotation Zrotation
                    End Site
                    {
                        OFFSET  -0.010000   0.002000   0.060000
                    }
                }
            }
        }
    }
    JOINT lHip
    {
        OFFSET   0.100000  -0.051395   0.000000
        CHANNELS 3 Xrotation Yrotation Zrotation
        JOINT lKnee
        {
            OFFSET   0.000000  -0.410000   0.000000
            CHANNELS 3 Xrotation Yrotation Zrotation
            JOINT lAnkle
            {
                OFFSET   0.000000  -0.390000   0.000000
                CHANNELS 3 Xrotation Yrotation Zrotation
                JOINT lToeJoint
                {
                    OFFSET   0.000000  -0.050000   0.130000
                    CHANNELS 3 Xrotation Yrotation Zrotation
                    End Site
                    {
                        OFFSET   0.010000   0.002000   0.060000
                    }
                }
            }
        }
    }
}
MOTION
Frames: 17
Frame Time:   0.008333
 -2.337285   1.014442   4.042129   6.318593  -1.447802 -13.135537   1.358944   1.902144  15.697631  -1.682647  -0.478680   3.340943  -5.488433  -0.996743  -3.864871   5.337064   0.498039  -7.624267   5.569648   7.080381  48.341405   0.004585  18.980375   0.000824   3.927730  -0.087080  -2.584515   8.139326   5.635303   2.774193  13.244767  -9.756417 -50.890717  -0.001822 -26.306057  -0.001182   1.325328  -7.741808   1.014622 -17.641038 -10.040218   7.187413  41.015740   0.011025   0.001441   1.093597 -11.887085   8.023129   4.304114  -0.008331  -0.003878 -24.217144  -1.472790  16.368496  30.922157   0.008306  -0.003710  40.704641   1.964492  -5.009799 -29.458268   0.057819  -0.019167
 -2.335242   1.027068   4.044548   6.403672  -1.622972 -12.227009   0.426044   2.037157  14.734034  -1.446655  -0.568074   3.654218  -5.229066  -0.719772  -3.856866   5.591217   0.444402  -7.197849   6.049253   7.296069  48.005650   0.002324  18.614075   0.001739   4.071560  -0.310374  -2.963714   8.554138   5.479478   2.426311  13.829926  -9.754017 -50.407778  -0.000834 -25.824635  -0.002011   1.388383  -7.396670   1.300805 -17.216930  -9.800654   6.319155  39.918836   0.009249   0.004183   3.046806 -11.586148   8.531454   4.631825  -0.007466  -0.003618 -23.395128  -0.995528  15.132076  29.676395   0.003707   0.002588  37.916548   2.185675  -5.407501 -24.755257   0.071002  -0.034952
 -2.333342   1.039138   4.046273   6.466040  -1.754294 -11.029749  -0.307494   2.187927  13.497023  -1.149459  -0.706121   3.712678  -4.975530  -0.442897  -3.897287   5.823779   0.458063  -6.519452   6.463500   7.555845  47.886592  -0.000153  18.289101   0.002692   4.213885  -0.429694  -3.126287   8.855983   5.174982   1.975097  14.281662  -9.831946 -49.992283  -0.001775 -25.381641  -0.003773   1.451113  -6.904779   1.596498 -16.935317  -9.487527   5.086603  38.601059   0.006990   0.006817   4.874383 -11.294239   8.994332   5.041505  -0.006929  -0.003322 -22.709963  -0.511227  13.685761  28.889166   0.001474   0.005171  35.282784   2.403993  -5.775171 -20.776315   0.073531  -0.044440
 -2.331711   1.050614   4.047538   6.522623  -1.869159  -9.821924  -0.904588   2.327176  12.239207  -0.823011  -0.875008   3.665521  -4.723024  -0.183604  -3.964946   6.041527   0.505506  -5.756262   6.833860   7.832291  47.879408  -0.002210  17.998347   0.003391   4.356773  -0.459927  -3.062982   9.089052   4.811062   1.445496  14.644174  -9.968839 -49.682181  -0.003396 -24.995995  -0.005568   1.514025  -6.524327   1.757162 -16.769477  -9.183813   3.816347  37.251901   0.004861   0.008692   6.572036 -11.010382   9.416561   5.415409  -0.006418  -0.002882 -22.071315  -0.067625  12.351010  28.239983   0.000547   0.006209  32.830961   2.621523  -6.113374 -17.142837   0.069788  -0.048404
 -2.330332   1.061449   4.048488   6.577930  -1.966291  -8.658126  -1.400276   2.443052  11.006313  -0.486303  -1.070351   3.563614  -4.476299   0.057294  -4.040950   6.247937   0.563375  -4.970946   7.174148   8.106192  47.930138  -0.003736  17.732364   0.003803   4.497382  -0.442288  -2.863474   9.273342   4.418914   0.865418  14.942692 -10.143522 -49.455819  -0.005031 -24.657493  -0.007075   1.578505  -6.269085   1.786458 -16.698415  -8.902875   2.574336  35.939970   0.003009   0.009767   8.150238 -10.734728   9.802494   5.750271  -0.005893  -0.002385 -21.454043   0.329495  11.171367  27.657223   0.000384   0.006416  30.545170   2.838324  -6.422918 -13.815579   0.062538  -0.048025
 -2.329164   1.071611   4.049217   6.632835  -2.043545  -7.549118  -1.819150   2.531624   9.810777  -0.150239  -1.288792   3.425182  -4.238420   0.280888  -4.118604   6.446158   0.618590  -4.196007   7.493112   8.367024  48.010271  -0.004767  17.484991   0.003968   4.633355  -0.408035  -2.589613   9.419931   4.015352   0.260414  15.192631 -10.341033 -49.290673  -0.006396 -24.357221  -0.008198   1.644208  -6.111611   1.716946 -16.701036  -8.642273   1.376530  34.685654   0.001441   0.010174   9.618317 -10.468052  10.155483   6.050509  -0.005351  -0.001888 -20.850166   0.684360  10.139661  27.123738   0.000662   0.006122  28.413244   3.052809  -6.705498 -10.767859   0.053791  -0.044602
 -2.328170   1.081076   4.049789   6.687390  -2.101798  -6.495719  -2.179112   2.593192   8.657016   0.178437  -1.526207   3.259366  -4.011122   0.488481  -4.195537   6.638213   0.664657  -3.449836   7.795989   8.609514  48.103071  -0.005382  17.252417   0.003938   4.763490  -0.376034  -2.278757   9.536266   3.610922  -0.350342  15.404482 -10.550957 -49.169377  -0.007399 -24.088576  -0.008939   1.710242  -6.026386   1.579560 -16.760061  -8.397742   0.227517  33.494324   0.000149   0.010084  10.984486 -10.211069  10.478432   6.320317  -0.004807  -0.001425 -20.257058   1.002277   9.240023  26.633892   0.001165   0.005539  26.424606   3.263401  -6.963001  -7.975360   0.044794  -0.039315
 -2.327544   1.089764   4.049872   6.545961  -2.191089  -5.646454  -2.064414   2.694401   7.699972   0.323279  -1.638063   3.034292  -3.840737   0.623305  -4.135504   6.639190   0.660568  -2.662186   8.128742   8.790930  48.023258  -0.003993  17.317604   0.002982   4.858199  -0.600339  -1.885495   9.382882   3.216353  -0.857346  15.405812 -10.557859 -48.959596  -0.007349 -23.815254  -0.008418   1.778052  -5.925193   1.182157 -16.729769  -8.006061  -0.631929  32.731555  -0.000531   0.008046  11.594030  -9.674059  10.537397   6.249823  -0.003878  -0.001477 -19.495901   1.333968   8.633007  25.956814   0.002185   0.004790  25.567851   3.367809  -6.912572  -6.888453   0.032977  -0.032235
 -2.327074   1.097691   4.049734   6.408345  -2.244144  -4.883813  -1.917480   2.774210   6.803782   0.467241  -1.751203   2.825990  -3.671054   0.748250  -4.074922   6.609448   0.687186  -1.956928   8.412532   8.977523  47.917067  -0.002904  17.395791   0.002182   4.950399  -0.740445  -1.580642   9.189642   2.807917  -1.279267  15.371000 -10.576699 -48.709295  -0.006877 -23.571289  -0.007813   1.835885  -5.866689   0.919862 -16.706278  -7.640528  -1.386841  32.079734  -0.000901   0.006130  12.156282  -9.168032  10.586797   6.138878  -0.003171  -0.001721 -18.798035   1.619485   8.132482  25.287655   0.003112   0.003874  24.774911   3.466150  -6.862964  -5.855261   0.023801  -0.025823
 -2.326673   1.104879   4.049486   6.283506  -2.273044  -4.174194  -1.765618   2.839629   5.952917   0.602731  -1.865904   2.625414  -3.507480   0.864728  -4.020263   6.564346   0.731624  -1.322761   8.663000   9.161146  47.796539  -0.002090  17.476118   0.001542   5.041204  -0.831891  -1.341580   8.982347   2.402123  -1.639448  15.320137 -10.602799 -48.443844  -0.006242 -23.350909  -0.007169   1.893100  -5.847759   0.748859 -16.682090  -7.300827  -2.082107  31.482750  -0.001110   0.004507  12.680345  -8.694860  10.628192   6.036986  -0.002606  -0.001857 -18.160603   1.873759   7.691626  24.646374   0.003846   0.002956  24.033816   3.557855  -6.815183  -4.909731   0.016833  -0.020267
 -2.326300   1.111339   4.049183   6.171827  -2.288603  -3.507399  -1.617981   2.895307   5.146481   0.726518  -1.977806   2.429846  -3.352575   0.973425  -3.971166   6.511122   0.784446  -0.749822   8.888560   9.337321  47.667518  -0.001493  17.555203   0.001043   5.129527  -0.896536  -1.151070   8.772421   2.009583  -1.955520  15.262100 -10.632122 -48.176897  -0.005570 -23.149572  -0.006513   1.949140  -5.853934   0.634344 -16.654477  -6.983501  -2.730867  30.927927  -0.001214   0.003188  13.168638  -8.252792  10.662546   5.943665  -0.002152  -0.001906 -17.575053   2.103258   7.295202  24.039184   0.004386   0.002133  23.341457   3.643123  -6.769377  -4.044838   0.011564  -0.015606
 -2.325937   1.117079   4.048858   6.072341  -2.297031  -2.878980  -1.478686   2.944087   4.384200   0.838209  -2.084361   2.239322  -3.207126   1.074906  -3.926709   6.453995   0.840397  -0.229984   9.094311   9.504027  47.534131  -0.001061  17.631384   0.000663   5.214833  -0.946064  -0.997566   8.566239   1.635686  -2.239083  15.201797 -10.662433 -47.916357  -0.004923 -22.964219  -0.005868   2.003455  -5.874571   0.554648 -16.622355  -6.686796  -3.338399  30.411328  -0.001240   0.002148  13.623657  -7.839944  10.690816   5.858014  -0.001783  -0.001889 -17.034533   2.311586   6.935835  23.467665   0.004751   0.001438  22.694849   3.722327  -6.725570  -3.253105   0.007596  -0.011780
 -2.325572   1.122107   4.048528   5.983921  -2.301578  -2.286089  -1.349381   2.987831   3.665138   0.938443  -2.184351   2.054421  -3.071177   1.169664  -3.886144   6.395513   0.896583   0.243572   9.283539   9.660571  47.399482  -0.000749  17.703877   0.000379   5.296930  -0.986799  -0.872676   8.367340   1.282828  -2.497601  15.141986 -10.692491 -47.666596  -0.004326 -22.792717  -0.005250   2.055791  -5.903090   0.496323 -16.585400  -6.409529  -3.907681  29.930667  -0.001210   0.001345  14.047781  -7.454470  10.713881   5.779427  -0.001482  -0.001825 -16.534066   2.501326   6.608569  22.931433   0.004965   0.000875  22.091089   3.795871  -6.683755  -2.527952   0.004630  -0.008690
 -2.325209   1.126397   4.047958   5.959923  -2.265924  -1.832805  -1.197419   2.949880   3.121516   0.966971  -2.227829   1.895590  -3.019719   1.238974  -3.874498   6.320267   0.969870   0.633894   9.455347   9.746357  47.314782  -0.000240  17.946094  -0.000137   5.378237  -1.107095  -0.834066   8.157773   1.031340  -2.675361  15.039532 -10.787073 -47.488295  -0.003610 -22.700155  -0.004424   2.122307  -5.890223   0.401958 -16.647016  -6.363922  -4.366681  29.592936  -0.000915   0.001216  14.319883  -7.100805  10.695518   5.551508  -0.001192  -0.002109 -16.222745   2.770353   6.435549  22.479953   0.004785  -0.000216  21.819700   3.759248  -6.736732  -2.156856   0.003556  -0.006302
 -2.324797   1.129987   4.047335   5.942370  -2.226992  -1.426676  -1.043079   2.914877   2.636902   0.990869  -2.261035   1.769145  -2.974662   1.302755  -3.862602   6.237619   1.052145   0.997424   9.604173   9.835839  47.234936   0.000190  18.181062  -0.000566   5.455873  -1.173820  -0.821465   7.954125   0.792983  -2.831163  14.937642 -10.879539 -47.317249  -0.002982 -22.619973  -0.003711   2.185434  -5.912648   0.322053 -16.707961  -6.337278  -4.785201  29.297267  -0.000692   0.001109  14.573075  -6.770907  10.677260   5.331330  -0.000959  -0.002249 -15.956186   3.025857   6.292502  22.048569   0.004553  -0.001059  21.569384   3.725018  -6.786841  -1.799527   0.002754  -0.004412
 -2.324327   1.132880   4.046700   5.928763  -2.186148  -1.051431  -0.894467   2.886528   2.197618   1.014430  -2.286463   1.666054  -2.931416   1.362147  -3.850191   6.152246   1.138618   1.339663   9.735538   9.926112  47.160996   0.000546  18.404341  -0.000906   5.530799  -1.212312  -0.815859   7.760339   0.567905  -2.969433  14.840674 -10.966609 -47.151599  -0.002445 -22.546322  -0.003106   2.246083  -5.945383   0.258444 -16.758965  -6.313067  -5.178543  29.026609  -0.000539   0.001001  14.809457  -6.463078  10.658812   5.129348  -0.000789  -0.002273 -15.721677   3.262612   6.159527  21.638121   0.004284  -0.001651  21.335421   3.693366  -6.833642  -1.472473   0.002148  -0.002985
 -2.323800   1.135077   4.046072   5.918790  -2.144072  -0.702120  -0.753941   2.864791   1.798997   1.037128  -2.304658   1.582175  -2.890243   1.417566  -3.837718   6.066877   1.225865   1.662392   9.853001  10.015178  47.093286   0.000837  18.615391  -0.001164   5.602963  -1.233380  -0.811435   7.578196   0.357772  -3.092815  14.750284 -11.047144 -46.992366  -0.001991 -22.477592  -0.002595   2.304283  -5.978617   0.207869 -16.798886  -6.289724  -5.550526  28.776998  -0.000436   0.000895  15.030090  -6.175901  10.640281   4.944236  -0.000665  -0.002218 -15.514430   3.482204   6.032320  21.249843   0.003988  -0.002042  21.116773   3.663958  -6.877382  -1.173521   0.001690  -0.001922
